<svg xmlns="http://www.w3.org/2000/svg" viewBox="0 0 300 150" fill="none"><rect x="74" y="20" width="146" height="115" rx="9" fill="#FCFBF8" stroke="#10213B" stroke-width="2" transform="rotate(-5 147 77)"/><path d="M93 48h51M93 62h94M93 77h94M93 92h74" stroke="#A6B5CD" stroke-width="3" stroke-linecap="round"/><path d="M91 62h73" stroke="#2556E8" stroke-width="7" opacity=".25"/><path d="M170 100q9-18 18-12t16-12" stroke="#2556E8" stroke-width="3" stroke-linecap="round"/><path d="m221 33 7 4-41 72-9 6 1-11z" fill="#2556E8" stroke="#10213B" stroke-width="2"/><circle cx="58" cy="43" r="17" fill="#E5EDFB"/><path d="M53 44v-7h5v7h-5zm8 0v-7h5v7h-5z" fill="#2556E8"/><path d="m48 108 5 5 10-12" stroke="#2556E8" stroke-width="3" stroke-linecap="round" stroke-linejoin="round"/></svg>
