<svg xmlns="http://www.w3.org/2000/svg" viewBox="0 0 300 150" fill="none"><rect x="87" y="22" width="126" height="108" rx="12" fill="#FCFBF8" stroke="#10213B" stroke-width="2" transform="rotate(-3 150 76)"/><rect x="107" y="42" width="27" height="27" rx="4" fill="#2556E8"/><circle cx="167" cy="55" r="15" stroke="#2556E8" stroke-width="3"/><path d="m120 83 17 29h-34z" fill="#C0CFEF" stroke="#10213B" stroke-width="2" stroke-linejoin="round"/><rect x="155" y="87" width="26" height="26" rx="4" stroke="#A7B6CE" stroke-width="2" stroke-dasharray="4 4"/><path d="m229 46 6 12 14 2-10 10 2 14-12-7-13 7 3-14-10-10 14-2z" fill="#2556E8"/><path d="M54 81c-14-25 16-39 27-22M57 81l-1-15m1 15 14-5" stroke="#10213B" stroke-width="3" stroke-linecap="round" stroke-linejoin="round"/><circle cx="71" cy="116" r="5" fill="#2556E8"/></svg>
